solid OpenSCAD_Model
  facet normal 0 0.707107 0.707107
    outer loop
      vertex 25 18.5355 3.53553
      vertex -25 -16.8198 38.8909
      vertex 25 -16.8198 38.8909
    endloop
  endfacet
  facet normal 0 0.707107 0.707107
    outer loop
      vertex -25 -16.8198 38.8909
      vertex 25 18.5355 3.53553
      vertex -25 18.5355 3.53553
    endloop
  endfacet
  facet normal 0 -0.707107 -0.707107
    outer loop
      vertex -25 15 0
      vertex 25 -20.3553 35.3553
      vertex -25 -20.3553 35.3553
    endloop
  endfacet
  facet normal 0 -0.707107 -0.707107
    outer loop
      vertex 25 -20.3553 35.3553
      vertex -25 15 0
      vertex 25 15 0
    endloop
  endfacet
  facet normal -1 0 0
    outer loop
      vertex -25 15 0
      vertex -25 -16.8198 38.8909
      vertex -25 18.5355 3.53553
    endloop
  endfacet
  facet normal -1 0 -0
    outer loop
      vertex -25 -16.8198 38.8909
      vertex -25 15 0
      vertex -25 -20.3553 35.3553
    endloop
  endfacet
  facet normal 0 -0.707107 0.707107
    outer loop
      vertex -25 -20.3553 35.3553
      vertex 25 -16.8198 38.8909
      vertex -25 -16.8198 38.8909
    endloop
  endfacet
  facet normal 0 -0.707107 0.707107
    outer loop
      vertex 25 -16.8198 38.8909
      vertex -25 -20.3553 35.3553
      vertex 25 -20.3553 35.3553
    endloop
  endfacet
  facet normal 1 0 0
    outer loop
      vertex 25 -16.8198 38.8909
      vertex 25 15 0
      vertex 25 18.5355 3.53553
    endloop
  endfacet
  facet normal 1 0 0
    outer loop
      vertex 25 15 0
      vertex 25 -16.8198 38.8909
      vertex 25 -20.3553 35.3553
    endloop
  endfacet
  facet normal 0 0.707107 -0.707107
    outer loop
      vertex 25 15 0
      vertex -25 18.5355 3.53553
      vertex 25 18.5355 3.53553
    endloop
  endfacet
  facet normal 0 0.707107 -0.707107
    outer loop
      vertex -25 18.5355 3.53553
      vertex 25 15 0
      vertex -25 15 0
    endloop
  endfacet
endsolid OpenSCAD_Model
